<svg width="21" height="20" viewBox="0 0 21 20" fill="none" xmlns="http://www.w3.org/2000/svg">
<path d="M19.3138 16.6667V10.145C19.3139 9.69128 19.2213 9.24232 19.0417 8.82563C18.8622 8.40893 18.5995 8.03328 18.2696 7.72168L12.1255 1.91501C11.816 1.62245 11.4063 1.45944 10.9805 1.45944C10.5546 1.45944 10.1449 1.62245 9.83547 1.91501L3.69131 7.72168C3.36149 8.03328 3.09877 8.40893 2.91922 8.82563C2.73968 9.24232 2.64709 9.69128 2.64714 10.145V16.6667C2.64714 17.1087 2.82274 17.5326 3.1353 17.8452C3.44786 18.1578 3.87178 18.3333 4.31381 18.3333H17.6471C18.0892 18.3333 18.5131 18.1578 18.8257 17.8452C19.1382 17.5326 19.3138 17.1087 19.3138 16.6667Z" stroke="#6F6E73" stroke-width="2" stroke-linecap="round" stroke-linejoin="round"/>
</svg>
