<svg width="27" height="26" viewBox="0 0 27 26" fill="none" xmlns="http://www.w3.org/2000/svg">
<path d="M16.1471 3.54141C16.1471 2.78199 15.5318 2.16666 14.7724 2.16666H13.1896C12.4291 2.16666 11.8138 2.78199 11.8138 3.54141C11.8138 4.16757 11.3848 4.70491 10.8009 4.93457C10.7088 4.97141 10.6167 5.01041 10.5268 5.04941C9.95156 5.29857 9.26797 5.22274 8.82381 4.77966C8.56602 4.52205 8.21649 4.37735 7.85206 4.37735C7.48762 4.37735 7.13809 4.52205 6.88031 4.77966L5.76014 5.89982C5.50254 6.15761 5.35783 6.50714 5.35783 6.87157C5.35783 7.23601 5.50254 7.58554 5.76014 7.84332V7.84332C6.20431 8.28749 6.28014 8.96999 6.02881 9.54632C5.98932 9.63702 5.9514 9.7284 5.91506 9.82041C5.68539 10.4043 5.14806 10.8333 4.52189 10.8333C3.76247 10.8333 3.14714 11.4487 3.14714 12.2081V13.7919C3.14714 14.5513 3.76247 15.1667 4.52189 15.1667C5.14806 15.1667 5.68539 15.5957 5.91506 16.1796C5.95189 16.2717 5.99089 16.3637 6.02881 16.4537C6.27906 17.0289 6.20322 17.7125 5.76014 18.1567C5.50254 18.4144 5.35783 18.764 5.35783 19.1284C5.35783 19.4928 5.50254 19.8424 5.76014 20.1002L6.88031 21.2203C7.13809 21.4779 7.48762 21.6226 7.85206 21.6226C8.21649 21.6226 8.56602 21.4779 8.82381 21.2203C9.26797 20.7762 9.95047 20.7003 10.5268 20.9506C10.6167 20.9907 10.7088 21.0286 10.8009 21.0654C11.3848 21.2951 11.8138 21.8324 11.8138 22.4586C11.8138 23.218 12.4291 23.8333 13.1886 23.8333H14.7724C15.5318 23.8333 16.1471 23.218 16.1471 22.4586C16.1471 21.8324 16.5761 21.2951 17.1601 21.0643C17.2521 21.0286 17.3442 20.9907 17.4341 20.9517C18.0094 20.7003 18.693 20.7772 19.1361 21.2203C19.2637 21.348 19.4153 21.4494 19.5821 21.5185C19.749 21.5876 19.9278 21.6232 20.1083 21.6232C20.2889 21.6232 20.4677 21.5876 20.6346 21.5185C20.8014 21.4494 20.953 21.348 21.0806 21.2203L22.2008 20.1002C22.4584 19.8424 22.6031 19.4928 22.6031 19.1284C22.6031 18.764 22.4584 18.4144 22.2008 18.1567V18.1567C21.7566 17.7125 21.6808 17.03 21.9311 16.4537C21.9711 16.3637 22.0091 16.2717 22.0459 16.1796C22.2756 15.5957 22.8129 15.1667 23.4391 15.1667C24.1985 15.1667 24.8138 14.5513 24.8138 13.7919V12.2092C24.8138 11.4497 24.1985 10.8344 23.4391 10.8344C22.8129 10.8344 22.2756 10.4054 22.0448 9.82149C22.0085 9.72947 21.9706 9.63809 21.9311 9.54741C21.6819 8.97216 21.7577 8.28857 22.2008 7.84441C22.4584 7.58662 22.6031 7.23709 22.6031 6.87266C22.6031 6.50822 22.4584 6.15869 22.2008 5.90091L21.0806 4.78074C20.8229 4.52314 20.4733 4.37843 20.1089 4.37843C19.7445 4.37843 19.3949 4.52314 19.1371 4.78074V4.78074C18.693 5.22491 18.0105 5.30074 17.4341 5.05049C17.3434 5.01063 17.2521 4.97235 17.1601 4.93566C16.5761 4.70491 16.1471 4.16757 16.1471 3.54249V3.54141Z" fill="#BEBEC2"/>
<path d="M18.3138 13C18.3138 14.1493 17.8573 15.2515 17.0446 16.0641C16.2319 16.8768 15.1297 17.3333 13.9805 17.3333C12.8312 17.3333 11.729 16.8768 10.9163 16.0641C10.1037 15.2515 9.64714 14.1493 9.64714 13C9.64714 11.8507 10.1037 10.7485 10.9163 9.93586C11.729 9.1232 12.8312 8.66666 13.9805 8.66666C15.1297 8.66666 16.2319 9.1232 17.0446 9.93586C17.8573 10.7485 18.3138 11.8507 18.3138 13V13Z" fill="#6F6E73"/>
</svg>
