<svg width="21" height="20" viewBox="0 0 21 20" fill="none" xmlns="http://www.w3.org/2000/svg">
<path d="M19.3143 16.6667V10.145C19.3143 9.69128 19.2218 9.24232 19.0422 8.82563C18.8627 8.40893 18.5999 8.03328 18.2701 7.72168L12.126 1.91501C11.8165 1.62245 11.4068 1.45944 10.981 1.45944C10.5551 1.45944 10.1454 1.62245 9.83596 1.91501L3.6918 7.72168C3.36198 8.03328 3.09926 8.40893 2.91971 8.82563C2.74016 9.24232 2.64758 9.69128 2.64763 10.145V16.6667C2.64763 17.1087 2.82322 17.5326 3.13578 17.8452C3.44834 18.1578 3.87227 18.3333 4.3143 18.3333H17.6476C18.0897 18.3333 18.5136 18.1578 18.8261 17.8452C19.1387 17.5326 19.3143 17.1087 19.3143 16.6667Z" stroke="#6F6E73" stroke-width="2" stroke-linecap="round" stroke-linejoin="round"/>
</svg>
