<svg width="70" height="69" viewBox="0 0 70 69" fill="none" xmlns="http://www.w3.org/2000/svg">
<mask id="mask0_1_134" style="mask-type:alpha" maskUnits="userSpaceOnUse" x="0" y="0" width="70" height="69">
<rect x="0.980469" width="69" height="69" rx="10" fill="#C4C4C4"/>
</mask>
<g mask="url(#mask0_1_134)">
<path d="M-11.341 -12.7778H81.0697V83.0556H-11.341V-12.7778Z" fill="#2F80ED"/>
<path fill-rule="evenodd" clip-rule="evenodd" d="M32.6425 14.4774C33.4353 14.0034 34.3343 13.7538 35.2495 13.7538C36.1646 13.7538 37.0636 14.0034 37.8564 14.4774C37.8573 14.4779 37.8583 14.4785 37.8592 14.479L51.3358 22.4651C52.1284 22.9397 52.7868 23.6222 53.2449 24.444C53.703 25.2657 53.9446 26.198 53.9455 27.1472V43.1223C53.9446 44.0716 53.703 45.0038 53.2449 45.8256C52.7868 46.6474 52.1284 47.3298 51.3358 47.8044L51.3305 47.8076L37.8592 55.7905C37.8582 55.7911 37.8573 55.7917 37.8563 55.7923C37.0635 56.2662 36.1646 56.5157 35.2495 56.5157C34.3344 56.5157 33.4354 56.2662 32.6426 55.7923C32.6417 55.7917 32.6407 55.7911 32.6397 55.7905L19.1684 47.8076L19.1632 47.8044C18.3705 47.3298 17.7121 46.6474 17.254 45.8256C16.796 45.0038 16.5543 44.0716 16.5534 43.1223V27.1472C16.5543 26.198 16.796 25.2657 17.254 24.444C17.7121 23.6222 18.3705 22.9397 19.1632 22.4651L19.1684 22.462L32.6397 14.479C32.6406 14.4785 32.6416 14.4779 32.6425 14.4774ZM35.2495 16.5934C34.8139 16.5934 34.386 16.7123 34.0088 16.9381L34.0035 16.9413L20.5322 24.9242C20.5314 24.9247 20.5307 24.9251 20.5299 24.9256C20.1541 25.1512 19.8419 25.4751 19.6246 25.865C19.4069 26.2555 19.2921 26.6984 19.2915 27.1495V43.1201C19.2921 43.5711 19.4069 44.0141 19.6246 44.4046C19.8419 44.7945 20.1542 45.1185 20.5301 45.3441C20.5308 45.3445 20.5315 45.3449 20.5322 45.3453L34.0088 53.3314C34.386 53.5573 34.8139 53.6762 35.2495 53.6762C35.685 53.6762 36.1129 53.5573 36.4902 53.3315L36.4954 53.3283L49.9667 45.3453C49.9674 45.3449 49.9682 45.3445 49.9689 45.3441C50.3448 45.1185 50.657 44.7945 50.8743 44.4046C51.0921 44.0139 51.207 43.5707 51.2074 43.1194V27.1501C51.207 26.6989 51.0921 26.2557 50.8743 25.865C50.657 25.4751 50.3449 25.1512 49.9691 24.9256C49.9683 24.9252 49.9675 24.9247 49.9667 24.9242L36.4902 16.9381C36.1129 16.7123 35.685 16.5934 35.2495 16.5934Z" fill="white"/>
<path fill-rule="evenodd" clip-rule="evenodd" d="M25.4005 18.8716C25.7788 18.1927 26.6162 17.9603 27.2709 18.3526L35.2495 23.1332L43.2281 18.3526C43.8827 17.9603 44.7201 18.1927 45.0984 18.8716C45.4766 19.5505 45.2525 20.4189 44.5979 20.8112L35.9344 26.0022C35.5106 26.2561 34.9883 26.2561 34.5646 26.0022L25.901 20.8112C25.2464 20.4189 25.0223 19.5505 25.4005 18.8716Z" fill="white"/>
<path fill-rule="evenodd" clip-rule="evenodd" d="M16.737 34.4245C17.1153 33.7456 17.9527 33.5132 18.6074 33.9055L27.2709 39.0965C27.6942 39.3501 27.955 39.8187 27.955 40.3258V50.6878C27.955 51.4719 27.3421 52.1075 26.586 52.1075C25.8299 52.1075 25.2169 51.4719 25.2169 50.6878V41.1452L17.2375 36.3641C16.5829 35.9718 16.3588 35.1035 16.737 34.4245Z" fill="white"/>
<path fill-rule="evenodd" clip-rule="evenodd" d="M53.7619 34.4245C54.1402 35.1035 53.9161 35.9718 53.2614 36.3641L45.282 41.1452V50.6878C45.282 51.4719 44.6691 52.1075 43.913 52.1075C43.1569 52.1075 42.5439 51.4719 42.5439 50.6878V40.3258C42.5439 39.8187 42.8047 39.3501 43.2281 39.0965L51.8916 33.9055C52.5463 33.5132 53.3836 33.7456 53.7619 34.4245Z" fill="white"/>
<path fill-rule="evenodd" clip-rule="evenodd" d="M17.2572 24.3614C17.6358 23.6827 18.4733 23.4508 19.1278 23.8434L35.2495 33.5146L51.3711 23.8434C52.0256 23.4508 52.8631 23.6827 53.2417 24.3614C53.6203 25.0402 53.3967 25.9087 52.7422 26.3013L35.935 36.3837C35.5109 36.6382 34.988 36.6382 34.5639 36.3837L17.7567 26.3013C17.1023 25.9087 16.8786 25.0402 17.2572 24.3614Z" fill="white"/>
<path fill-rule="evenodd" clip-rule="evenodd" d="M35.2495 33.7151C36.0056 33.7151 36.6185 34.3507 36.6185 35.1348V55.2598C36.6185 56.0439 36.0056 56.6796 35.2495 56.6796C34.4934 56.6796 33.8804 56.0439 33.8804 55.2598V35.1348C33.8804 34.3507 34.4934 33.7151 35.2495 33.7151Z" fill="white"/>
</g>
</svg>
