<svg width="21" height="20" viewBox="0 0 21 20" fill="none" xmlns="http://www.w3.org/2000/svg">
<path d="M19.3141 16.6667V10.145C19.3142 9.69131 19.2216 9.24235 19.042 8.82566C18.8625 8.40896 18.5998 8.03331 18.27 7.72171L12.1258 1.91504C11.8163 1.62248 11.4066 1.45947 10.9808 1.45947C10.5549 1.45947 10.1452 1.62248 9.83579 1.91504L3.69163 7.72171C3.36181 8.03331 3.09909 8.40896 2.91954 8.82566C2.74 9.24235 2.64741 9.69131 2.64746 10.145V16.6667C2.64746 17.1087 2.82306 17.5327 3.13562 17.8452C3.44818 18.1578 3.8721 18.3334 4.31413 18.3334H17.6475C18.0895 18.3334 18.5134 18.1578 18.826 17.8452C19.1385 17.5327 19.3141 17.1087 19.3141 16.6667Z" stroke="#6F6E73" stroke-width="2" stroke-linecap="round" stroke-linejoin="round"/>
</svg>
