<svg width="22" height="21" viewBox="0 0 22 21" fill="none" xmlns="http://www.w3.org/2000/svg">
<path d="M8.85547 13.125L6.25847 15.722C5.96943 16.011 5.6012 16.2078 5.20033 16.2875C4.79947 16.3672 4.38396 16.3263 4.00635 16.1699C3.62874 16.0135 3.30598 15.7486 3.07888 15.4088C2.85178 15.069 2.73053 14.6695 2.73047 14.2608V13.125L3.91784 7.189C4.07643 6.39557 4.50502 5.68159 5.1307 5.16855C5.75637 4.6555 6.54047 4.37508 7.34959 4.375H15.6113C16.4205 4.37508 17.2046 4.6555 17.8302 5.16855C18.4559 5.68159 18.8845 6.39557 19.0431 7.189L20.2305 13.125V14.2599C20.2304 14.6686 20.1092 15.0681 19.8821 15.4079C19.655 15.7477 19.3322 16.0126 18.9546 16.169C18.577 16.3254 18.1615 16.3663 17.7606 16.2866C17.3597 16.2069 16.9915 16.0101 16.7025 15.7211L14.1055 13.125H8.85547Z" stroke="white" stroke-width="2" stroke-linecap="round" stroke-linejoin="round"/>
<path d="M8.85547 4.375L9.73047 6.125H13.2305L14.1055 4.375" stroke="white" stroke-width="2" stroke-linecap="round" stroke-linejoin="round"/>
</svg>
