<svg width="22" height="21" viewBox="0 0 22 21" fill="none" xmlns="http://www.w3.org/2000/svg">
<path d="M2.73047 7L3.87147 7.91263C4.26897 8.23056 4.73103 8.45796 5.22544 8.57899C5.71985 8.70001 6.2347 8.71174 6.73411 8.61336C7.23352 8.51498 7.70546 8.30885 8.11702 8.00935C8.52859 7.70985 8.86988 7.32419 9.11709 6.87925L11.4805 2.625L13.8438 6.87925C14.0911 7.32412 14.4325 7.7097 14.8441 8.00912C15.2557 8.30853 15.7276 8.51457 16.227 8.61286C16.7264 8.71116 17.2413 8.69935 17.7356 8.57826C18.23 8.45718 18.692 8.22972 19.0895 7.91175L20.2305 7L18.6957 14.6738C18.6287 15.0086 18.4861 15.3238 18.2788 15.5952C18.0716 15.8667 17.805 16.0872 17.4996 16.24V16.24C15.6307 17.1745 13.57 17.661 11.4805 17.661C9.39099 17.661 7.3302 17.1745 5.46134 16.24V16.24C5.1559 16.0872 4.88938 15.8667 4.6821 15.5952C4.47481 15.3238 4.33223 15.0086 4.26522 14.6738L2.73047 7Z" stroke="white" stroke-width="2" stroke-linecap="round" stroke-linejoin="round"/>
<path d="M7.98047 13.125C10.252 14.2914 12.709 14.2914 14.9805 13.125" stroke="white" stroke-width="2" stroke-linecap="round" stroke-linejoin="round"/>
</svg>
