<svg width="22" height="21" viewBox="0 0 22 21" fill="none" xmlns="http://www.w3.org/2000/svg">
<g clip-path="url(#clip0_109_244)">
<path d="M5.73544 9.11322C8.14257 9.11322 10.0939 7.16186 10.0939 4.75473C10.0939 2.3476 8.14257 0.39624 5.73544 0.39624C3.32832 0.39624 1.37695 2.3476 1.37695 4.75473C1.37695 7.16186 3.32832 9.11322 5.73544 9.11322Z" fill="white"/>
</g>
<g clip-path="url(#clip1_109_244)">
<path d="M16.5464 1.52858C16.8542 1.01586 17.5976 1.01586 17.9054 1.52858L21.2607 7.12052C21.5777 7.64869 21.1973 8.32069 20.5812 8.32069H13.8707C13.2549 8.32069 12.8745 7.64869 13.1911 7.12052L16.5464 1.52858Z" fill="white"/>
</g>
<g clip-path="url(#clip2_109_244)">
<path d="M20.3948 12.2831H14.0551C13.6175 12.2831 13.2627 12.6379 13.2627 13.0755V19.4152C13.2627 19.8528 13.6175 20.2076 14.0551 20.2076H20.3948C20.8324 20.2076 21.1872 19.8528 21.1872 19.4152V13.0755C21.1872 12.6379 20.8324 12.2831 20.3948 12.2831Z" fill="white"/>
<g clip-path="url(#clip3_109_244)">
<path d="M16.675 12.5113C16.8211 12.3652 17.0192 12.2832 17.2258 12.2832C17.4324 12.2832 17.6305 12.3652 17.7766 12.5113L20.9598 15.6946C21.1059 15.8407 21.1879 16.0388 21.1879 16.2453C21.1879 16.4519 21.1059 16.65 20.9598 16.7961L17.7766 19.9794C17.6305 20.1254 17.4324 20.2075 17.2258 20.2075C17.0192 20.2075 16.8211 20.1254 16.675 19.9794L13.4918 16.7961C13.3457 16.65 13.2637 16.4519 13.2637 16.2453C13.2637 16.0388 13.3457 15.8407 13.4918 15.6946L16.675 12.5113Z" fill="white"/>
</g>
</g>
<path d="M5.18481 12.5113C5.33089 12.3652 5.529 12.2832 5.73557 12.2832C5.94213 12.2832 6.14024 12.3652 6.28632 12.5113L9.4696 15.6946C9.61565 15.8407 9.69769 16.0388 9.69769 16.2453C9.69769 16.4519 9.61565 16.65 9.4696 16.7961L6.28632 19.9794C6.14024 20.1254 5.94213 20.2075 5.73557 20.2075C5.529 20.2075 5.33089 20.1254 5.18481 19.9794L2.00153 16.7961C1.85548 16.65 1.77344 16.4519 1.77344 16.2453C1.77344 16.0388 1.85548 15.8407 2.00153 15.6946L5.18481 12.5113Z" fill="white"/>
<defs>
<clipPath id="clip0_109_244">
<rect width="9.50943" height="9.50943" fill="white" transform="translate(0.980469)"/>
</clipPath>
<clipPath id="clip1_109_244">
<rect width="9.50943" height="9.50943" fill="white" transform="translate(12.4707)"/>
</clipPath>
<clipPath id="clip2_109_244">
<rect width="9.50943" height="9.50943" fill="white" transform="translate(12.4707 11.4906)"/>
</clipPath>
<clipPath id="clip3_109_244">
<rect width="9.50943" height="9.50943" fill="white" transform="translate(12.4707 11.4906)"/>
</clipPath>
</defs>
</svg>
