<svg width="17" height="16" viewBox="0 0 17 16" fill="none" xmlns="http://www.w3.org/2000/svg">
<path d="M5.64762 5.33333C6.75219 5.33333 7.64762 4.4379 7.64762 3.33333C7.64762 2.22876 6.75219 1.33333 5.64762 1.33333C4.54306 1.33333 3.64762 2.22876 3.64762 3.33333C3.64762 4.4379 4.54306 5.33333 5.64762 5.33333Z" fill="#6F6E73"/>
<path d="M7.6476 8H4.91294C4.42555 8.00014 3.95499 8.17824 3.58966 8.50085C3.22433 8.82346 2.98937 9.26838 2.92894 9.752L2.5016 13.168C2.47816 13.3556 2.49489 13.5461 2.55067 13.7267C2.60646 13.9074 2.70004 14.0741 2.82519 14.2159C2.95034 14.3576 3.1042 14.4711 3.27657 14.5488C3.44893 14.6265 3.63586 14.6667 3.82494 14.6667H6.98094" fill="#6F6E73"/>
<path d="M15.4603 13.168L15.0336 9.752C14.9731 9.26815 14.738 8.82305 14.3724 8.50041C14.0068 8.17777 13.5359 7.99981 13.0483 8H11.5789C11.0915 8.00014 10.621 8.17824 10.2556 8.50085C9.89032 8.82347 9.65536 9.26838 9.59493 9.752L9.16759 13.168C9.14414 13.3557 9.16088 13.5462 9.21671 13.7269C9.27254 13.9076 9.36617 14.0744 9.4914 14.2161C9.61662 14.3579 9.77057 14.4713 9.94301 14.549C10.1155 14.6267 10.3025 14.6668 10.4916 14.6667H14.1369C14.326 14.6667 14.5129 14.6265 14.6853 14.5488C14.8577 14.4711 15.0115 14.3576 15.1367 14.2159C15.2618 14.0741 15.3554 13.9074 15.4112 13.7267C15.467 13.5461 15.4837 13.3556 15.4603 13.168Z" fill="#6F6E73"/>
<path d="M12.3143 5.33333C13.4189 5.33333 14.3143 4.4379 14.3143 3.33333C14.3143 2.22876 13.4189 1.33333 12.3143 1.33333C11.2097 1.33333 10.3143 2.22876 10.3143 3.33333C10.3143 4.4379 11.2097 5.33333 12.3143 5.33333Z" fill="#6F6E73"/>
</svg>
