<?xml version="1.0" encoding="iso-8859-1"?>
<!-- Generator: Adobe Illustrator 19.0.0, SVG Export Plug-In . SVG Version: 6.00 Build 0)  -->
<svg version="1.1" id="Layer_1" xmlns="http://www.w3.org/2000/svg" xmlns:xlink="http://www.w3.org/1999/xlink" x="0px" y="0px"
	 viewBox="0 0 512 512" style="enable-background:new 0 0 512 512;" xml:space="preserve">
<polygon style="fill:#E9F4FC;" points="182.179,96.538 182.179,408.648 256.002,425.903 329.825,408.648 329.825,96.538 "/>
<polygon style="fill:#C9E3F7;" points="182.179,96.538 182.179,408.648 204.893,425.903 227.608,408.648 227.608,96.538 "/>
<polygon style="fill:#78B9EB;" points="284.395,96.538 284.395,408.648 307.11,425.903 329.825,408.648 329.825,96.538 "/>
<polygon style="fill:#FFEFD9;" points="182.179,408.648 256.002,512 329.825,408.648 "/>
<polyline style="fill:#FFD6A0;" points="256.002,512 329.825,408.648 256.002,408.648 "/>
<rect x="182.175" y="79.502" style="fill:#FFC170;" width="147.646" height="34.072"/>
<rect x="255.998" y="79.502" style="fill:#FF9811;" width="73.823" height="34.072"/>
<path style="fill:#FFD6A0;" d="M329.825,79.502v-5.679C329.825,33.117,296.708,0,256.002,0s-73.823,33.117-73.823,73.823v5.679
	H329.825z"/>
<polygon style="fill:#3C5D76;" points="218.841,459.975 256.002,512 293.163,459.975 "/>
<g>
</g>
<g>
</g>
<g>
</g>
<g>
</g>
<g>
</g>
<g>
</g>
<g>
</g>
<g>
</g>
<g>
</g>
<g>
</g>
<g>
</g>
<g>
</g>
<g>
</g>
<g>
</g>
<g>
</g>
</svg>
