<svg width="22" height="21" viewBox="0 0 22 21" fill="none" xmlns="http://www.w3.org/2000/svg">
<path d="M19.3555 14V7.00004C19.3552 6.69315 19.2741 6.39175 19.1206 6.12605C18.967 5.86036 18.7462 5.63973 18.4805 5.48629L12.3555 1.98629C12.0894 1.83269 11.7877 1.75183 11.4805 1.75183C11.1733 1.75183 10.8715 1.83269 10.6055 1.98629L4.48047 5.48629C4.2147 5.63973 3.99395 5.86036 3.84037 6.12605C3.68679 6.39175 3.60578 6.69315 3.60547 7.00004V14C3.60578 14.3069 3.68679 14.6083 3.84037 14.874C3.99395 15.1397 4.2147 15.3603 4.48047 15.5138L10.6055 19.0138C10.8715 19.1674 11.1733 19.2482 11.4805 19.2482C11.7877 19.2482 12.0894 19.1674 12.3555 19.0138L18.4805 15.5138C18.7462 15.3603 18.967 15.1397 19.1206 14.874C19.2741 14.6083 19.3552 14.3069 19.3555 14Z" stroke="white" stroke-width="2" stroke-linecap="round" stroke-linejoin="round"/>
<path d="M3.8418 6.08997L11.4805 10.5087L19.1193 6.08997" stroke="white" stroke-width="2" stroke-linecap="round" stroke-linejoin="round"/>
<path d="M11.4805 19.32V10.5" stroke="white" stroke-width="2" stroke-linecap="round" stroke-linejoin="round"/>
</svg>
