<svg width="22" height="21" viewBox="0 0 22 21" fill="none" xmlns="http://www.w3.org/2000/svg">
<path d="M4.46019 8.61C4.49538 8.17145 4.69447 7.76226 5.0178 7.4639C5.34113 7.16554 5.76498 6.99991 6.20494 7H16.7557C17.1956 6.99991 17.6195 7.16554 17.9428 7.4639C18.2662 7.76226 18.4652 8.17145 18.5004 8.61L19.2031 17.36C19.2224 17.6008 19.1917 17.843 19.1128 18.0713C19.0339 18.2996 18.9086 18.5092 18.7448 18.6867C18.581 18.8643 18.3822 19.006 18.161 19.1029C17.9397 19.1998 17.7008 19.2499 17.4592 19.25H5.50144C5.25987 19.2499 5.02093 19.1998 4.79967 19.1029C4.57841 19.006 4.37961 18.8643 4.2158 18.6867C4.05198 18.5092 3.9267 18.2996 3.84784 18.0713C3.76897 17.843 3.73824 17.6008 3.75756 17.36L4.46019 8.61V8.61Z" stroke="white" stroke-width="2" stroke-linecap="round" stroke-linejoin="round"/>
<path d="M14.9805 9.625V5.25C14.9805 4.32174 14.6117 3.4315 13.9553 2.77513C13.299 2.11875 12.4087 1.75 11.4805 1.75C10.5522 1.75 9.66197 2.11875 9.00559 2.77513C8.34922 3.4315 7.98047 4.32174 7.98047 5.25V9.625" stroke="white" stroke-width="2" stroke-linecap="round" stroke-linejoin="round"/>
</svg>
