<svg width="27" height="26" viewBox="0 0 27 26" fill="none" xmlns="http://www.w3.org/2000/svg">
<path d="M16.1475 3.54138C16.1475 2.78196 15.5321 2.16663 14.7727 2.16663H13.19C12.4295 2.16663 11.8141 2.78196 11.8141 3.54138C11.8141 4.16754 11.3851 4.70488 10.8012 4.93454C10.7091 4.97138 10.617 5.01038 10.5271 5.04938C9.95188 5.29854 9.26829 5.22271 8.82413 4.77963C8.56634 4.52202 8.21681 4.37732 7.85238 4.37732C7.48794 4.37732 7.13842 4.52202 6.88063 4.77963L5.76046 5.89979C5.50286 6.15758 5.35815 6.50711 5.35815 6.87154C5.35815 7.23598 5.50286 7.58551 5.76046 7.84329C6.20463 8.28746 6.28046 8.96996 6.02913 9.54629C5.98964 9.63699 5.95172 9.72837 5.91538 9.82038C5.68571 10.4043 5.14838 10.8333 4.52221 10.8333C3.76279 10.8333 3.14746 11.4486 3.14746 12.208V13.7919C3.14746 14.5513 3.76279 15.1666 4.52221 15.1666C5.14838 15.1666 5.68571 15.5956 5.91538 16.1795C5.95221 16.2716 5.99121 16.3637 6.02913 16.4536C6.27938 17.0289 6.20354 17.7125 5.76046 18.1566C5.50286 18.4144 5.35815 18.7639 5.35815 19.1284C5.35815 19.4928 5.50286 19.8423 5.76046 20.1001L6.88063 21.2203C7.13842 21.4779 7.48794 21.6226 7.85238 21.6226C8.21681 21.6226 8.56634 21.4779 8.82413 21.2203C9.26829 20.7761 9.95079 20.7003 10.5271 20.9505C10.617 20.9906 10.7091 21.0285 10.8012 21.0654C11.3851 21.295 11.8141 21.8324 11.8141 22.4585C11.8141 23.218 12.4295 23.8333 13.1889 23.8333H14.7727C15.5321 23.8333 16.1475 23.218 16.1475 22.4585C16.1475 21.8324 16.5765 21.295 17.1604 21.0643C17.2525 21.0285 17.3445 20.9906 17.4345 20.9516C18.0097 20.7003 18.6933 20.7772 19.1364 21.2203C19.264 21.348 19.4156 21.4493 19.5824 21.5184C19.7493 21.5876 19.9281 21.6231 20.1087 21.6231C20.2893 21.6231 20.4681 21.5876 20.6349 21.5184C20.8017 21.4493 20.9533 21.348 21.081 21.2203L22.2011 20.1001C22.4587 19.8423 22.6034 19.4928 22.6034 19.1284C22.6034 18.7639 22.4587 18.4144 22.2011 18.1566C21.757 17.7125 21.6811 17.03 21.9314 16.4536C21.9715 16.3637 22.0094 16.2716 22.0462 16.1795C22.2759 15.5956 22.8132 15.1666 23.4394 15.1666C24.1988 15.1666 24.8141 14.5513 24.8141 13.7919V12.2091C24.8141 11.4497 24.1988 10.8344 23.4394 10.8344C22.8132 10.8344 22.2759 10.4054 22.0451 9.82146C22.0088 9.72944 21.9709 9.63806 21.9314 9.54738C21.6822 8.97213 21.758 8.28854 22.2011 7.84438C22.4587 7.58659 22.6034 7.23706 22.6034 6.87263C22.6034 6.50819 22.4587 6.15866 22.2011 5.90088L21.081 4.78071C20.8232 4.5231 20.4736 4.3784 20.1092 4.3784C19.7448 4.3784 19.3952 4.5231 19.1375 4.78071C18.6933 5.22488 18.0108 5.30071 17.4345 5.05046C17.3438 5.0106 17.2524 4.97232 17.1604 4.93563C16.5765 4.70488 16.1475 4.16754 16.1475 3.54246V3.54138Z" fill="#BEBEC2"/>
<path d="M18.3141 13C18.3141 14.1492 17.8576 15.2514 17.0449 16.0641C16.2323 16.8767 15.1301 17.3333 13.9808 17.3333C12.8315 17.3333 11.7293 16.8767 10.9167 16.0641C10.104 15.2514 9.64746 14.1492 9.64746 13C9.64746 11.8507 10.104 10.7485 10.9167 9.93583C11.7293 9.12317 12.8315 8.66663 13.9808 8.66663C15.1301 8.66663 16.2323 9.12317 17.0449 9.93583C17.8576 10.7485 18.3141 11.8507 18.3141 13Z" fill="#6F6E73"/>
</svg>
